<svg xmlns="http://www.w3.org/2000/svg" viewBox="0 0 512 512" width="512" height="512">
  <!-- Icône du livre « A Cüjina de Mùnegu » : drapeau de Monaco (rouge Pantone 186 / blanc) + le blason doré de la couverture. Kevin 2026-09-10. -->
  <rect width="512" height="256" y="0" fill="#CE1126"/>
  <rect width="512" height="256" y="256" fill="#FFFFFF"/>
  <g transform="translate(106 106) scale(3)" stroke-linejoin="round">
    <path d="M50 6 L86 20 V52 C86 74 70 88 50 96 C30 88 14 74 14 52 V20 Z" fill="#0F2A3A" fill-opacity=".92" stroke="#CBA14C" stroke-width="2.5"/>
    <g fill="#CBA14C">
      <path d="M50 30 l7 7 -7 7 -7 -7 z" opacity=".95"/>
      <path d="M38 42 l7 7 -7 7 -7 -7 z" opacity=".8"/>
      <path d="M62 42 l7 7 -7 7 -7 -7 z" opacity=".8"/>
      <path d="M50 54 l7 7 -7 7 -7 -7 z" opacity=".65"/>
    </g>
  </g>
</svg>
